<mxfile host="app.diagrams.net" agent="Mozilla/5.0 (X11; Ubuntu; Linux x86_64; rv:130.0) Gecko/20100101 Firefox/130.0" version="24.7.16">
  <diagram name="PÃ¡gina-1" id="T0DtyOKfdKWfkvEkrM5l">
    <mxGraphModel dx="1195" dy="663" grid="1" gridSize="10" guides="1" tooltips="1" connect="1" arrows="1" fold="1" page="1" pageScale="1" pageWidth="827" pageHeight="1169" background="none" math="0" shadow="0">
      <root>
        <mxCell id="0" />
        <mxCell id="1" parent="0" />
        <mxCell id="IE06-30J-hqq6in8-7NS-3" style="edgeStyle=orthogonalEdgeStyle;rounded=0;orthogonalLoop=1;jettySize=auto;html=1;exitX=0.5;exitY=1;exitDx=0;exitDy=0;" edge="1" parent="1" source="IE06-30J-hqq6in8-7NS-1" target="IE06-30J-hqq6in8-7NS-2">
          <mxGeometry relative="1" as="geometry" />
        </mxCell>
        <mxCell id="IE06-30J-hqq6in8-7NS-1" value="Spotify" style="rounded=1;whiteSpace=wrap;html=1;" vertex="1" parent="1">
          <mxGeometry x="354" y="110" width="120" height="60" as="geometry" />
        </mxCell>
        <mxCell id="IE06-30J-hqq6in8-7NS-7" style="edgeStyle=orthogonalEdgeStyle;rounded=0;orthogonalLoop=1;jettySize=auto;html=1;exitX=0.5;exitY=1;exitDx=0;exitDy=0;" edge="1" parent="1" source="IE06-30J-hqq6in8-7NS-2" target="IE06-30J-hqq6in8-7NS-4">
          <mxGeometry relative="1" as="geometry" />
        </mxCell>
        <mxCell id="IE06-30J-hqq6in8-7NS-8" style="edgeStyle=orthogonalEdgeStyle;rounded=0;orthogonalLoop=1;jettySize=auto;html=1;exitX=0.5;exitY=1;exitDx=0;exitDy=0;" edge="1" parent="1" source="IE06-30J-hqq6in8-7NS-2" target="IE06-30J-hqq6in8-7NS-5">
          <mxGeometry relative="1" as="geometry" />
        </mxCell>
        <mxCell id="IE06-30J-hqq6in8-7NS-9" style="edgeStyle=orthogonalEdgeStyle;rounded=0;orthogonalLoop=1;jettySize=auto;html=1;exitX=0.5;exitY=1;exitDx=0;exitDy=0;" edge="1" parent="1" source="IE06-30J-hqq6in8-7NS-2" target="IE06-30J-hqq6in8-7NS-6">
          <mxGeometry relative="1" as="geometry" />
        </mxCell>
        <mxCell id="IE06-30J-hqq6in8-7NS-2" value="Login" style="rounded=1;whiteSpace=wrap;html=1;" vertex="1" parent="1">
          <mxGeometry x="354" y="210" width="120" height="40" as="geometry" />
        </mxCell>
        <mxCell id="IE06-30J-hqq6in8-7NS-10" style="edgeStyle=orthogonalEdgeStyle;rounded=0;orthogonalLoop=1;jettySize=auto;html=1;exitX=1;exitY=0.25;exitDx=0;exitDy=0;entryX=0;entryY=0.25;entryDx=0;entryDy=0;" edge="1" parent="1" source="IE06-30J-hqq6in8-7NS-4" target="IE06-30J-hqq6in8-7NS-5">
          <mxGeometry relative="1" as="geometry" />
        </mxCell>
        <mxCell id="IE06-30J-hqq6in8-7NS-23" style="edgeStyle=orthogonalEdgeStyle;rounded=0;orthogonalLoop=1;jettySize=auto;html=1;exitX=0;exitY=0.5;exitDx=0;exitDy=0;entryX=0;entryY=0.5;entryDx=0;entryDy=0;" edge="1" parent="1" source="IE06-30J-hqq6in8-7NS-4" target="IE06-30J-hqq6in8-7NS-14">
          <mxGeometry relative="1" as="geometry" />
        </mxCell>
        <mxCell id="IE06-30J-hqq6in8-7NS-24" style="edgeStyle=orthogonalEdgeStyle;rounded=0;orthogonalLoop=1;jettySize=auto;html=1;exitX=0;exitY=0.5;exitDx=0;exitDy=0;entryX=0;entryY=0.5;entryDx=0;entryDy=0;" edge="1" parent="1" source="IE06-30J-hqq6in8-7NS-4" target="IE06-30J-hqq6in8-7NS-15">
          <mxGeometry relative="1" as="geometry" />
        </mxCell>
        <mxCell id="IE06-30J-hqq6in8-7NS-25" style="edgeStyle=orthogonalEdgeStyle;rounded=0;orthogonalLoop=1;jettySize=auto;html=1;exitX=0;exitY=0.5;exitDx=0;exitDy=0;entryX=0;entryY=0.5;entryDx=0;entryDy=0;" edge="1" parent="1" source="IE06-30J-hqq6in8-7NS-4" target="IE06-30J-hqq6in8-7NS-16">
          <mxGeometry relative="1" as="geometry" />
        </mxCell>
        <mxCell id="IE06-30J-hqq6in8-7NS-4" value="Inicio" style="rounded=1;whiteSpace=wrap;html=1;" vertex="1" parent="1">
          <mxGeometry x="180" y="290" width="120" height="40" as="geometry" />
        </mxCell>
        <mxCell id="IE06-30J-hqq6in8-7NS-11" style="edgeStyle=orthogonalEdgeStyle;rounded=0;orthogonalLoop=1;jettySize=auto;html=1;exitX=1;exitY=0.25;exitDx=0;exitDy=0;entryX=0;entryY=0.25;entryDx=0;entryDy=0;" edge="1" parent="1" source="IE06-30J-hqq6in8-7NS-5" target="IE06-30J-hqq6in8-7NS-6">
          <mxGeometry relative="1" as="geometry" />
        </mxCell>
        <mxCell id="IE06-30J-hqq6in8-7NS-13" style="edgeStyle=orthogonalEdgeStyle;rounded=0;orthogonalLoop=1;jettySize=auto;html=1;exitX=0;exitY=0.75;exitDx=0;exitDy=0;entryX=1;entryY=0.75;entryDx=0;entryDy=0;" edge="1" parent="1" source="IE06-30J-hqq6in8-7NS-5" target="IE06-30J-hqq6in8-7NS-4">
          <mxGeometry relative="1" as="geometry" />
        </mxCell>
        <mxCell id="IE06-30J-hqq6in8-7NS-27" style="edgeStyle=orthogonalEdgeStyle;rounded=0;orthogonalLoop=1;jettySize=auto;html=1;exitX=0;exitY=1;exitDx=0;exitDy=0;entryX=0;entryY=0.5;entryDx=0;entryDy=0;" edge="1" parent="1" source="IE06-30J-hqq6in8-7NS-5" target="IE06-30J-hqq6in8-7NS-17">
          <mxGeometry relative="1" as="geometry">
            <Array as="points">
              <mxPoint x="354" y="380" />
            </Array>
          </mxGeometry>
        </mxCell>
        <mxCell id="IE06-30J-hqq6in8-7NS-28" style="edgeStyle=orthogonalEdgeStyle;rounded=0;orthogonalLoop=1;jettySize=auto;html=1;exitX=0;exitY=1;exitDx=0;exitDy=0;entryX=0;entryY=0.5;entryDx=0;entryDy=0;" edge="1" parent="1" source="IE06-30J-hqq6in8-7NS-5" target="IE06-30J-hqq6in8-7NS-18">
          <mxGeometry relative="1" as="geometry">
            <Array as="points">
              <mxPoint x="354" y="430" />
            </Array>
          </mxGeometry>
        </mxCell>
        <mxCell id="IE06-30J-hqq6in8-7NS-29" style="edgeStyle=orthogonalEdgeStyle;rounded=0;orthogonalLoop=1;jettySize=auto;html=1;exitX=0;exitY=1;exitDx=0;exitDy=0;entryX=0;entryY=0.5;entryDx=0;entryDy=0;" edge="1" parent="1" source="IE06-30J-hqq6in8-7NS-5" target="IE06-30J-hqq6in8-7NS-19">
          <mxGeometry relative="1" as="geometry">
            <Array as="points">
              <mxPoint x="354" y="480" />
            </Array>
          </mxGeometry>
        </mxCell>
        <mxCell id="IE06-30J-hqq6in8-7NS-5" value="Buscar" style="rounded=1;whiteSpace=wrap;html=1;" vertex="1" parent="1">
          <mxGeometry x="354" y="290" width="120" height="40" as="geometry" />
        </mxCell>
        <mxCell id="IE06-30J-hqq6in8-7NS-12" style="edgeStyle=orthogonalEdgeStyle;rounded=0;orthogonalLoop=1;jettySize=auto;html=1;exitX=0;exitY=0.75;exitDx=0;exitDy=0;entryX=1;entryY=0.75;entryDx=0;entryDy=0;" edge="1" parent="1" source="IE06-30J-hqq6in8-7NS-6" target="IE06-30J-hqq6in8-7NS-5">
          <mxGeometry relative="1" as="geometry" />
        </mxCell>
        <mxCell id="IE06-30J-hqq6in8-7NS-30" style="edgeStyle=orthogonalEdgeStyle;rounded=0;orthogonalLoop=1;jettySize=auto;html=1;exitX=0;exitY=1;exitDx=0;exitDy=0;entryX=0;entryY=0.5;entryDx=0;entryDy=0;" edge="1" parent="1" source="IE06-30J-hqq6in8-7NS-6" target="IE06-30J-hqq6in8-7NS-20">
          <mxGeometry relative="1" as="geometry">
            <Array as="points">
              <mxPoint x="520" y="380" />
            </Array>
          </mxGeometry>
        </mxCell>
        <mxCell id="IE06-30J-hqq6in8-7NS-31" style="edgeStyle=orthogonalEdgeStyle;rounded=0;orthogonalLoop=1;jettySize=auto;html=1;exitX=0;exitY=1;exitDx=0;exitDy=0;entryX=0;entryY=0.5;entryDx=0;entryDy=0;" edge="1" parent="1" source="IE06-30J-hqq6in8-7NS-6" target="IE06-30J-hqq6in8-7NS-21">
          <mxGeometry relative="1" as="geometry">
            <Array as="points">
              <mxPoint x="520" y="430" />
            </Array>
          </mxGeometry>
        </mxCell>
        <mxCell id="IE06-30J-hqq6in8-7NS-32" style="edgeStyle=orthogonalEdgeStyle;rounded=0;orthogonalLoop=1;jettySize=auto;html=1;exitX=0;exitY=1;exitDx=0;exitDy=0;entryX=0;entryY=0.5;entryDx=0;entryDy=0;" edge="1" parent="1" source="IE06-30J-hqq6in8-7NS-6" target="IE06-30J-hqq6in8-7NS-22">
          <mxGeometry relative="1" as="geometry">
            <Array as="points">
              <mxPoint x="520" y="480" />
            </Array>
          </mxGeometry>
        </mxCell>
        <mxCell id="IE06-30J-hqq6in8-7NS-6" value="Biblioteca" style="rounded=1;whiteSpace=wrap;html=1;" vertex="1" parent="1">
          <mxGeometry x="520" y="290" width="120" height="40" as="geometry" />
        </mxCell>
        <mxCell id="IE06-30J-hqq6in8-7NS-14" value="Novedades" style="rounded=1;whiteSpace=wrap;html=1;" vertex="1" parent="1">
          <mxGeometry x="180" y="360" width="120" height="40" as="geometry" />
        </mxCell>
        <mxCell id="IE06-30J-hqq6in8-7NS-15" value="Historial" style="rounded=1;whiteSpace=wrap;html=1;" vertex="1" parent="1">
          <mxGeometry x="180" y="410" width="120" height="40" as="geometry" />
        </mxCell>
        <mxCell id="IE06-30J-hqq6in8-7NS-16" value="Configuracion" style="rounded=1;whiteSpace=wrap;html=1;" vertex="1" parent="1">
          <mxGeometry x="180" y="460" width="120" height="40" as="geometry" />
        </mxCell>
        <mxCell id="IE06-30J-hqq6in8-7NS-17" value="Novedades" style="rounded=1;whiteSpace=wrap;html=1;" vertex="1" parent="1">
          <mxGeometry x="370" y="360" width="120" height="40" as="geometry" />
        </mxCell>
        <mxCell id="IE06-30J-hqq6in8-7NS-18" value="Historial" style="rounded=1;whiteSpace=wrap;html=1;" vertex="1" parent="1">
          <mxGeometry x="370" y="410" width="120" height="40" as="geometry" />
        </mxCell>
        <mxCell id="IE06-30J-hqq6in8-7NS-19" value="Configuracion" style="rounded=1;whiteSpace=wrap;html=1;" vertex="1" parent="1">
          <mxGeometry x="370" y="460" width="120" height="40" as="geometry" />
        </mxCell>
        <mxCell id="IE06-30J-hqq6in8-7NS-20" value="Novedades" style="rounded=1;whiteSpace=wrap;html=1;" vertex="1" parent="1">
          <mxGeometry x="530" y="360" width="120" height="40" as="geometry" />
        </mxCell>
        <mxCell id="IE06-30J-hqq6in8-7NS-21" value="Historial" style="rounded=1;whiteSpace=wrap;html=1;" vertex="1" parent="1">
          <mxGeometry x="530" y="410" width="120" height="40" as="geometry" />
        </mxCell>
        <mxCell id="IE06-30J-hqq6in8-7NS-22" value="Configuracion" style="rounded=1;whiteSpace=wrap;html=1;" vertex="1" parent="1">
          <mxGeometry x="530" y="460" width="120" height="40" as="geometry" />
        </mxCell>
      </root>
    </mxGraphModel>
  </diagram>
</mxfile>
